<svg width="89" height="88" viewBox="0 0 89 88" fill="none" xmlns="http://www.w3.org/2000/svg">
<path d="M41.5957 0.742805C36.3443 1.30602 30.5902 3.35903 26.188 6.22961C23.9869 7.6649 21.0752 10.0631 20.6766 10.7898C20.1046 11.8073 20.6766 13.1517 21.7684 13.3697C22.5657 13.5151 22.947 13.3334 24.5762 11.9163C28.4758 8.55514 33.6752 5.93892 38.5627 4.9215C44.4901 3.68606 49.7762 3.99492 55.513 5.93892C57.5927 6.62931 58.182 6.62931 58.7539 5.86625C59.2046 5.24853 59.2046 4.19477 58.7539 3.57705C58.4766 3.21368 57.8527 2.92299 56.2755 2.37794C51.648 0.797309 46.4659 0.234094 41.5957 0.742805Z" fill="#EF476F"/>
<path d="M68.2158 0.490529C66.1707 1.05374 64.9229 2.74339 64.9229 4.95992C64.9402 6.44971 65.3215 7.39446 66.3267 8.32104C67.2279 9.13861 67.9385 9.41113 69.2037 9.41113C70.5903 9.41113 71.4915 8.9751 72.3927 7.90317C73.7966 6.23169 73.8833 3.86982 72.5834 2.08933C71.7168 0.908399 69.585 0.108996 68.2158 0.490529ZM69.7237 4.26952C70.3476 4.85091 70.0183 5.77749 69.1691 5.77749C68.2852 5.77749 67.9732 4.77823 68.6838 4.25135C69.1691 3.88799 69.3251 3.88799 69.7237 4.26952Z" fill="#EF476F"/>
<path d="M76.2362 6.79621C75.6469 7.06873 61.4004 24.2377 61.0711 25.0553C60.8631 25.6003 60.8631 25.7457 61.1404 26.3271C61.5217 27.1446 62.215 27.5262 63.0122 27.3808C63.5322 27.2718 64.5374 26.1272 70.9154 18.442C74.9363 13.5911 78.3333 9.3761 78.472 9.08541C79.1306 7.70462 77.5881 6.12399 76.2362 6.79621Z" fill="#EF476F"/>
<path d="M16.4477 14.8245C15.1478 16.2053 16.517 18.4763 18.2155 17.7496C18.9087 17.4408 19.2727 16.8412 19.2727 15.9873C19.2727 15.4604 19.1514 15.2061 18.7354 14.8064C17.9902 14.0978 17.1409 14.116 16.4477 14.8245Z" fill="#EF476F"/>
<path d="M37.0028 16.2779C36.8122 16.3688 36.5002 16.6231 36.3096 16.8411C35.9803 17.2227 35.9629 17.5315 35.9109 22.6731L35.859 28.1054H28.857C23.7962 28.1054 21.7337 28.1599 21.4044 28.3235C20.4512 28.7777 20.4512 28.7595 20.4512 38.7339V47.9088H18.5447H16.6383V46.5462C16.6383 44.2752 15.9797 43.5484 13.9866 43.5484H13.0506L12.9293 42.8217C12.444 39.6241 12.4787 34.755 13.016 31.6301C13.328 29.7224 14.0559 27.0153 14.7665 25.1258C15.841 22.2189 15.8584 22.2008 15.5984 21.5649C15.1998 20.5656 13.8479 20.1659 13.016 20.7655C12.5827 21.0925 12.0801 22.1644 11.2308 24.5626C9.60167 29.1774 8.82175 35.0094 9.18572 39.933C9.27237 41.2956 9.41103 42.6582 9.46302 42.9671L9.56701 43.5303L5.28612 43.5848L1.00523 43.6393L0.502615 44.2388L0 44.8202V61.2625C0 73.6169 0.0519946 77.8137 0.207978 78.1589C0.623935 79.14 0.779919 79.1582 8.38846 79.1582H15.4251L15.9797 78.6313C16.4823 78.1771 16.5343 77.9954 16.6036 76.9053L16.6729 75.7062H19.9833H23.2763L27.5398 77.4504C29.8796 78.4133 35.4603 80.7206 39.9492 82.5556C49.9322 86.6798 51.4053 87.243 53.1385 87.5701C56.6915 88.2786 59.2912 88.1333 63.6414 86.9705C78.6679 83.0098 83.7633 81.5927 84.5779 81.193C86.4151 80.3028 88.0615 78.0681 88.5468 75.8697C89.3268 72.3088 87.5243 68.5479 84.2659 66.931C83.434 66.5313 82.8448 66.3859 81.7529 66.3132C80.4703 66.2224 79.8984 66.3314 75.6522 67.3307C73.0871 67.9484 70.7993 68.5116 70.5914 68.5661C70.1927 68.6569 70.1927 68.6388 70.1927 66.6766V64.6963L70.99 63.8969C71.4406 63.4427 72.3765 62.3344 73.1044 61.4441C77.3507 56.1572 80.141 49.3804 81.0423 42.2222C81.5449 38.1888 81.1289 30.649 80.3144 28.9775C79.7944 27.9238 78.4599 27.7602 77.6106 28.6687C77.0214 29.2864 77.0214 29.1592 77.5586 32.92C77.8879 35.2637 77.8879 39.3334 77.5586 41.986C76.848 47.6726 74.6643 53.3229 71.4233 57.8468L70.2794 59.4456L70.1927 48.9626L70.1061 38.4613L69.6208 37.9708L69.1528 37.4621L61.9603 37.4076L54.7677 37.3531V27.3605V17.3498L54.2824 16.8593L53.8144 16.3506L48.5456 16.2416C41.7517 16.0781 37.4361 16.0962 37.0028 16.2779ZM47.887 19.8752L51.3014 19.9842V37.7709C51.3014 47.5454 51.2494 55.5395 51.18 55.5395C51.0934 55.5395 48.4243 54.3949 45.2353 53.0141L39.4292 50.4887L39.3773 35.1184L39.3426 19.7481H41.9077C43.3288 19.7481 46.0152 19.8026 47.887 19.8752ZM35.8763 40.3508V48.9626L34.7151 48.4357L33.5365 47.927L28.7357 47.9088H23.9175V39.8239V31.7391H29.8969H35.8763V40.3508ZM66.7264 55.2488V69.4927L65.4786 69.8015C61.3363 70.8008 60.1924 70.9825 58.234 70.9643C57.1421 70.9643 55.9289 70.9098 55.5476 70.8371L54.8543 70.7099L54.8023 69.4018C54.7677 68.3117 54.8197 67.9484 55.1663 67.2216C55.8249 65.8772 56.1542 64.4964 56.1542 63.152C56.1542 61.8257 55.6862 59.9725 55.1143 59.0823C54.785 58.5554 54.7677 58.2465 54.7677 49.8891C54.7677 45.1291 54.8197 41.1866 54.889 41.1321C54.941 41.0594 57.6447 41.0049 60.8684 41.0049H66.7264V55.2488ZM13.1373 61.3896L13.172 75.5245H8.31914H3.46631V61.3533V47.1821L8.28448 47.2184L13.0853 47.2729L13.1373 61.3896ZM41.5437 55.3396C46.3445 57.429 50.5908 59.3548 50.9547 59.6092C51.8906 60.245 52.5319 61.4623 52.6359 62.7886C52.8785 65.6228 50.9374 67.8939 48.2337 67.8939C47.2978 67.8939 46.6738 67.694 43.2942 66.3314C34.3684 62.7159 34.5071 62.7704 33.8658 62.9884C33.1032 63.261 32.7566 63.806 32.7566 64.7326C32.7566 65.2958 32.8606 65.6047 33.1552 65.9135C33.6578 66.4041 50.8507 73.3625 53.2078 74.0166C54.4557 74.3618 55.4609 74.4889 57.3674 74.5616C60.3484 74.6706 61.0937 74.5798 66.5531 73.2535C68.7889 72.7266 72.8618 71.7455 75.6002 71.0915C78.3212 70.4374 80.9036 69.8924 81.3196 69.8924C83.0527 69.8924 84.8899 71.5457 85.1845 73.3625C85.4618 75.0158 84.7512 76.7781 83.4514 77.6865C82.6541 78.2498 61.4056 83.9546 58.9446 84.2453C57.0554 84.4996 55.3049 84.3725 53.2425 83.8637C52.4626 83.6821 48.2163 82.0469 43.7968 80.2301C39.3946 78.4133 33.1206 75.8516 29.8622 74.5071L23.9349 72.0726H20.2952H16.6383V61.8075V51.5425H24.7148H32.7913L41.5437 55.3396Z" fill="#EF476F"/>
<path d="M72.7232 18.0221C71.874 18.331 70.7648 19.4392 70.3488 20.384C69.9675 21.2561 69.9155 23.1274 70.2621 23.9995C70.5914 24.8534 71.5273 25.889 72.3419 26.3432C73.3298 26.8882 75.2016 26.8882 76.1722 26.3432C77.732 25.4711 78.5813 24.054 78.5813 22.2917C78.5813 19.0759 75.6349 16.932 72.7232 18.0221ZM74.959 21.7466C75.219 22.0555 75.2363 22.1826 75.0803 22.5642C74.8203 23.1456 74.439 23.3091 73.9018 23.0547C73.6071 22.9094 73.4858 22.6914 73.4858 22.328C73.4858 21.3832 74.3524 21.038 74.959 21.7466Z" fill="#EF476F"/>
</svg>
