<svg width="82" height="82" viewBox="0 0 82 82" fill="none" xmlns="http://www.w3.org/2000/svg">
<path d="M3.17877 0.27626C2.59797 0.464169 2.08549 0.80582 1.43635 1.43787C-0.101077 2.99239 0.00141862 1.28413 0.00141862 24.6189C0.00141862 47.9366 -0.101077 46.1942 1.45344 47.7487C2.80296 49.1153 3.26419 49.2007 8.61103 49.2007H13.1037L17.6989 53.9326C20.2272 56.5291 22.9945 59.3648 23.8316 60.2531C25.164 61.6368 25.4373 61.8418 25.9327 61.8418C26.2915 61.8418 26.6331 61.7051 26.9064 61.4147L27.3335 61.0048V55.0942V49.2007H28.7001H30.0667V47.8341V46.4675H27.7606C25.5228 46.4675 25.4203 46.4846 25.0274 46.8946L24.6003 47.3045V52.2072V57.1099L20.7226 53.1126C18.5702 50.909 16.2811 48.5345 15.5978 47.8341L14.3678 46.5529L9.15767 46.4675L3.93041 46.3821L3.38376 45.8184L2.82004 45.2717V24.6018V3.93193L3.38376 3.38529L3.93041 2.82156L6.74903 2.77031L9.56765 2.71907V1.35246V0.00294113L6.80028 0.0200233C4.83578 0.0200233 3.77666 0.105434 3.17877 0.27626Z" fill="#EF476F"/>
<path d="M12.3008 1.36961V2.73622L45.1847 2.77039L78.0686 2.82163L78.6153 3.38535L79.179 3.932V24.6019V45.2718L78.6153 45.8184L78.0686 46.3822L74.1396 46.4334L70.2277 46.4846L66.6746 44.9985C64.7271 44.1956 62.9164 43.4098 62.6772 43.2902C62.2843 43.1023 60.6444 40.5399 60.6444 40.147C60.6444 40.0787 61.0373 39.7712 61.4985 39.4637C62.6943 38.695 63.668 37.5334 63.9755 36.5084C64.1634 35.8935 64.2318 34.8514 64.2318 32.9723V30.2904L65.7863 29.7267C68.4682 28.77 70.484 27.1301 70.911 25.5585C71.1331 24.7727 71.0135 23.6282 70.6548 22.9278C69.9886 21.6466 67.8703 20.1775 65.5471 19.3917L64.078 18.8963L61.9256 15.0869C60.7298 12.9857 59.6195 11.1921 59.4486 11.1067C59.0216 10.8846 50.3095 10.8846 49.8824 11.1067C49.7116 11.1921 48.5841 13.0028 47.3884 15.104L45.2018 18.9305L44.2793 19.2209C41.1361 20.2117 38.8812 21.9028 38.42 23.6453C38.1979 24.4481 38.3175 25.5927 38.6762 26.276C39.3425 27.5401 41.2899 28.9238 43.5789 29.7437L45.0993 30.2904V32.9723C45.0993 34.8514 45.1676 35.8935 45.3555 36.5084C45.663 37.5334 46.6367 38.695 47.8325 39.4637L48.6866 40.0104L48.0717 41.1378C47.73 41.7528 47.32 42.4702 47.1663 42.7265C46.9442 43.1194 45.9534 43.5806 40.8287 45.7159C33.5002 48.7566 33.3294 48.825 32.5778 49.7303C31.4503 51.0457 31.4332 51.1482 31.4332 59.4845V66.9666H32.7999H34.1665V59.5186V52.0706L34.7302 51.524C35.1402 51.114 36.7288 50.3795 41.1191 48.5516C44.3306 47.2192 47.0296 46.1259 47.115 46.1259C47.2517 46.1259 51.9323 53.0102 51.9323 53.2152C51.9323 53.2664 49.7287 53.3006 47.0296 53.3006C42.6223 53.3006 42.0415 53.3347 41.4265 53.6252C39.9916 54.2743 39.6329 55.1284 39.6329 57.8958V59.9286L39.035 60.3044C38.1979 60.8169 36.9851 62.2177 36.4726 63.2597C35.9943 64.2505 35.5331 66.1638 35.5331 67.2229C35.5331 67.872 35.4135 68.0257 33.9615 69.4778C32.9536 70.4686 32.1849 71.0835 31.8603 71.1689C30.545 71.4764 29.315 72.433 28.7 73.6459C28.1705 74.6538 27.7947 77.1649 28.0167 78.1557C28.273 79.3344 28.7684 80.1714 29.5883 80.8718C30.972 82.0676 29.5371 81.9993 54.768 81.9993C77.0949 81.9993 77.5562 81.9993 78.4444 81.6576C80.1185 81.0427 81.4851 79.1294 81.4851 77.4212C81.4851 76.5158 81.0239 74.2267 80.7164 73.6459C80.2723 72.7747 79.589 72.0914 78.7348 71.6643C78.2736 71.4252 77.7782 71.2373 77.6245 71.2373C77.4707 71.2373 76.5483 70.4515 75.5746 69.4949L73.798 67.7524V66.8812C73.798 64.763 72.7901 62.5422 71.116 60.9877C70.5181 60.424 69.9544 59.9628 69.869 59.9628C69.7665 59.9628 69.6982 59.1087 69.6982 57.9129C69.6982 55.248 69.3736 54.3768 68.0753 53.6593C67.6483 53.4372 66.76 53.3689 62.4039 53.3006L57.2279 53.2152L59.5853 49.6791C60.8665 47.7317 62.011 46.1259 62.0964 46.1259C62.3356 46.1259 73.798 50.909 74.2934 51.2336C75.1304 51.7632 75.1646 52.0706 75.1646 59.792V66.9666H76.5312H77.9149L77.8636 59.3136C77.8124 50.909 77.8295 51.114 76.702 49.8328L76.1895 49.252L77.3512 49.1666C79.2644 49.0299 80.631 48.1417 81.5022 46.4676L81.9122 45.6988L81.9634 24.9435C82.0147 1.25004 82.1172 3.00954 80.5456 1.45502C78.974 -0.133652 82.3222 0.00300598 45.0822 0.00300598H12.3008V1.36961ZM59.2266 15.8556C59.8928 17.0514 60.4223 18.0422 60.3882 18.0764C60.354 18.1105 59.4657 18.0593 58.4066 17.9568C57.3304 17.8543 55.6563 17.7689 54.6655 17.7689C53.6747 17.7689 52.0006 17.8543 50.9244 17.9568C49.8653 18.0593 48.9599 18.1105 48.9258 18.0764C48.8916 18.0422 49.4212 17.0343 50.1045 15.8385L51.3344 13.6691H54.6655L57.9966 13.6861L59.2266 15.8556ZM58.2699 20.6729C61.9256 21.0316 65.2055 21.937 66.9308 23.0474C68.5707 24.1065 68.7074 24.824 67.4945 25.7806C66.8625 26.2931 65.4617 26.9935 64.6247 27.2497C64.2488 27.3522 64.2318 27.318 64.2318 26.4468C64.2318 25.0631 64.0268 24.8923 61.5327 24.0723C58.5603 23.1157 57.1767 22.8595 54.6655 22.8595C52.1544 22.8595 50.7707 23.1157 47.7983 24.0723C45.3043 24.8923 45.0993 25.0631 45.0993 26.4468C45.0993 27.318 45.0822 27.3522 44.7235 27.2497C43.8693 26.9935 42.4686 26.2931 41.8365 25.7806C40.6237 24.824 40.7603 24.1065 42.4002 23.0474C45.4068 21.1171 52.291 20.0921 58.2699 20.6729ZM57.8258 25.8831C58.492 26.0197 59.5682 26.3101 60.2174 26.5322L61.4131 26.9422L61.4644 31.1958C61.4985 34.1681 61.4473 35.6031 61.3106 35.9276C61.1569 36.2864 60.2857 36.9697 58.2699 38.3192C55.7076 40.0445 55.3659 40.2324 54.6655 40.2324C53.9651 40.2324 53.6235 40.0445 51.0611 38.3192C49.0454 36.9697 48.1742 36.2864 48.0204 35.9276C47.8837 35.6031 47.8325 34.1681 47.8667 31.1958L47.9179 26.9422L49.1137 26.5322C52.1031 25.5243 54.9218 25.3023 57.8258 25.8831ZM52.2227 42.3165C53.2818 42.8973 53.5039 42.9656 54.6655 42.9656C55.8271 42.9656 56.0492 42.9144 57.1254 42.3165C57.7575 41.9578 58.3041 41.6844 58.3212 41.7186C58.4749 41.9407 59.7903 44.2981 59.7903 44.3493C59.7903 44.6226 54.6143 52.1048 54.4947 52.0023C54.136 51.5923 49.4895 44.486 49.4895 44.3322C49.4895 44.1273 50.8732 41.6844 50.9928 41.6844C51.0269 41.6844 51.5907 41.9748 52.2227 42.3165ZM66.9308 57.4858L66.982 58.8524L66.0425 58.8012C65.2225 58.7499 65.0517 58.7841 64.6588 59.177L64.2318 59.604V66.0271V72.433H54.6655H45.0993V66.0271V59.604L44.6551 59.1599C44.2622 58.7841 44.1085 58.7328 43.2885 58.8012L42.3661 58.8866V57.5712C42.3661 56.8538 42.4173 56.2046 42.4857 56.1534C42.5369 56.085 48.0546 56.0509 54.7339 56.068L66.8796 56.1192L66.9308 57.4858ZM39.4279 76.3279L36.4726 79.2832L34.1323 79.2319C31.8261 79.1807 31.792 79.1807 31.2966 78.7023C31.0062 78.429 30.7499 78.002 30.6987 77.7628C30.5791 77.182 30.8866 75.4054 31.1941 74.7904C31.4845 74.2438 32.2361 73.7997 32.9194 73.7997C33.2952 73.7997 33.859 73.3213 35.8064 71.3568L38.2321 68.9311L38.3175 67.2741C38.3858 66.1638 38.5225 65.378 38.7446 64.8655C39.2229 63.7893 40.4187 62.5422 41.4265 62.081L42.2807 61.671L42.3319 67.5133L42.3661 73.3726L39.4279 76.3279ZM67.8703 62.0127C69.0149 62.5593 69.7665 63.2768 70.3815 64.4384C70.894 65.395 70.9623 65.7025 71.0477 67.257L71.1502 69.0165L73.4734 71.3398C75.6258 73.4922 75.865 73.6801 76.6166 73.8167C77.9832 74.073 78.4103 74.6709 78.6836 76.8062C78.7519 77.4553 78.7178 77.8141 78.5128 78.207C78.0515 79.0952 77.5049 79.2661 75.1304 79.2661H73.0293L69.9886 76.2254L66.965 73.2018V67.4279C66.965 64.2676 66.9991 61.671 67.0504 61.671C67.1016 61.671 67.4604 61.8248 67.8703 62.0127ZM67.0504 77.2162L69.1003 79.2661H54.6655H40.2308L42.2807 77.2162L44.3306 75.1663H54.6655H65.0005L67.0504 77.2162Z" fill="#EF476F"/>
<path d="M52.2739 60.3898C50.4803 60.7827 48.3449 61.7734 46.9954 62.8496L46.5684 63.1742L47.4567 64.1992L48.3449 65.2241L49.4211 64.5067C51.0782 63.3963 52.6498 62.9521 54.8363 62.9692C56.9716 62.9863 58.2187 63.345 59.9611 64.4725L61.0885 65.207L61.9768 64.2163L62.8651 63.2425L62.2331 62.6959C61.4131 62.0126 59.124 60.8852 57.9112 60.5435C56.5275 60.1677 53.6064 60.0823 52.2739 60.3898Z" fill="#EF476F"/>
<path d="M53.0769 65.7879C52.3082 65.9758 51.5395 66.3516 50.7708 66.9153L50.2241 67.3253L51.0782 68.3332L51.9495 69.324L52.7523 68.8627C53.8969 68.2307 55.6222 68.2307 56.7155 68.8627L57.4842 69.324L58.3042 68.3844C58.7483 67.872 59.1071 67.3936 59.1071 67.3082C59.1071 67.0178 57.8259 66.2662 56.7326 65.9416C55.6051 65.5829 54.1873 65.5316 53.0769 65.7879Z" fill="#EF476F"/>
<path d="M7.51768 5.72568C5.82651 6.20399 5.46777 6.64814 5.46777 8.27098C5.46777 12.7808 9.60175 16.6585 14.1286 16.3681L15.034 16.3169V18.0593V19.8017L14.1799 19.2209C12.6766 18.213 11.5833 17.8714 9.653 17.8714C7.791 17.8543 6.44148 18.1959 5.87775 18.8109C5.48486 19.2551 5.36528 20.8096 5.6386 22.0908C6.44148 26.0198 10.1996 28.9238 14.1286 28.6676L15.034 28.6163V30.3587V32.1012L14.1799 31.5203C12.6766 30.5125 11.5833 30.1708 9.653 30.1708C7.791 30.1537 6.44148 30.4954 5.87775 31.1104C5.48486 31.5545 5.36528 33.109 5.6386 34.3902C6.44148 38.3192 10.1996 41.2232 14.1286 40.967L15.034 40.9158V42.3165V43.7344H16.4006H17.7672V42.3165V40.9158L18.7751 40.967C22.6528 41.1891 26.3597 38.285 27.1626 34.3902C27.4359 33.109 27.3164 31.5545 26.9235 31.1104C26.3597 30.4954 25.0102 30.1537 23.1482 30.1708C21.2179 30.1708 20.1246 30.5125 18.6213 31.5203L17.7672 32.1012V30.3587V28.6163L18.7751 28.6676C22.6528 28.8896 26.3597 25.9856 27.1626 22.0908C27.4359 20.8096 27.3164 19.2551 26.9235 18.8109C26.3597 18.1959 25.0102 17.8543 23.1482 17.8714C21.2179 17.8714 20.1246 18.213 18.6213 19.2209L17.7672 19.8017V18.0593V16.3169L18.7751 16.3681C22.6528 16.5902 26.3597 13.6862 27.1626 9.79133C27.4359 8.51014 27.3164 6.95562 26.9235 6.51148C26.3597 5.89651 25.0102 5.55486 23.1482 5.57194C21.2179 5.57194 20.1246 5.91359 18.6213 6.92146L17.7672 7.50227V6.47731V5.46944H16.4006H15.034V6.47731V7.50227L14.1799 6.92146C12.2837 5.64027 9.56759 5.16196 7.51768 5.72568ZM11.8225 8.73221C12.2154 8.9372 12.8304 9.31302 13.172 9.58634C13.8895 10.1501 14.7778 11.7387 14.9486 12.7637L15.0682 13.4812L14.4361 13.6007C12.9499 13.8741 10.5925 13.037 9.63592 11.9096C9.02095 11.1921 8.44014 9.94507 8.2864 9.10803C8.20098 8.51014 8.21807 8.39056 8.49139 8.30515C9.15761 8.11724 11.0879 8.3564 11.8225 8.73221ZM24.2244 8.32223C24.5832 8.40764 24.6173 8.49306 24.5148 9.0397C24.344 10.0817 23.4386 11.7387 22.7553 12.2683C21.3716 13.3616 19.7317 13.857 18.3651 13.6007L17.7331 13.4812L17.8526 12.7637C18.0235 11.7558 18.9117 10.1501 19.6292 9.55217C20.9446 8.47597 22.8749 7.94641 24.2244 8.32223ZM11.8225 21.0317C12.2154 21.2366 12.8304 21.6125 13.172 21.8858C13.8895 22.4495 14.7778 24.0382 14.9486 25.0631L15.0682 25.7806L14.4361 25.9002C12.9499 26.1735 10.5925 25.3365 9.63592 24.209C9.02095 23.4915 8.44014 22.2445 8.2864 21.4075C8.20098 20.8096 8.21807 20.69 8.49139 20.6046C9.15761 20.4167 11.0879 20.6558 11.8225 21.0317ZM24.2244 20.6217C24.5832 20.7071 24.6173 20.7925 24.5148 21.3391C24.344 22.3812 23.4386 24.0382 22.7553 24.5677C21.3716 25.661 19.7317 26.1564 18.3651 25.9002L17.7331 25.7806L17.8526 25.0631C18.0235 24.0553 18.9117 22.4495 19.6292 21.8516C20.9446 20.7754 22.8749 20.2459 24.2244 20.6217ZM11.8225 33.3311C12.2154 33.5361 12.8304 33.9119 13.172 34.1852C13.8895 34.7489 14.7778 36.3376 14.9486 37.3626L15.0682 38.08L14.4361 38.1996C12.9499 38.4729 10.5925 37.6359 9.63592 36.5085C9.02095 35.791 8.44014 34.544 8.2864 33.7069C8.20098 33.109 8.21807 32.9894 8.49139 32.904C9.15761 32.7161 11.0879 32.9553 11.8225 33.3311ZM24.2244 32.9211C24.5832 33.0065 24.6173 33.0919 24.5148 33.6386C24.344 34.6806 23.4386 36.3376 22.7553 36.8672C21.3716 37.9605 19.7317 38.4559 18.3651 38.1996L17.7331 38.08L17.8526 37.3626C18.0235 36.3547 18.9117 34.7489 19.6292 34.1511C20.9446 33.0749 22.8749 32.5453 24.2244 32.9211Z" fill="#EF476F"/>
<path d="M39.0349 5.67448C37.5316 5.9478 35.4988 7.05817 34.303 8.25395C32.3898 10.1672 31.5186 12.2683 31.5186 15.0357C31.5186 17.4444 32.0652 19.0672 33.5172 20.9634C34.1664 21.8004 35.8234 23.2354 36.1479 23.2354C36.2333 23.2354 36.5921 22.7058 36.9508 22.0908C37.5316 21.0488 37.5658 20.9292 37.2925 20.7925C36.4725 20.3313 35.4817 19.1526 34.8838 17.9739C34.2859 16.744 34.2518 16.5902 34.2518 15.0528C34.2518 13.5666 34.303 13.3104 34.7984 12.2683C35.55 10.6797 36.5067 9.68888 38.0612 8.92017C39.2911 8.32228 39.4449 8.28811 40.9823 8.28811C42.4685 8.28811 42.7247 8.33936 43.7326 8.81767C44.3476 9.10808 45.1504 9.60347 45.4921 9.89387L46.1241 10.4576L47.0637 9.62055C47.5762 9.17641 48.0032 8.69809 48.0032 8.5956C48.0032 8.25395 46.295 6.98984 45.0138 6.39195C43.1347 5.52074 41.119 5.28158 39.0349 5.67448Z" fill="#EF476F"/>
<path d="M71.0649 6.83598V8.20258H72.4315H73.7982V9.56919V10.9358H75.1648H76.5314V8.62965C76.5314 6.39183 76.5143 6.28933 76.1043 5.89644C75.7114 5.48645 75.6089 5.46937 73.3711 5.46937H71.0649V6.83598Z" fill="#EF476F"/>
<path d="M30.0669 27.4204V28.5308H31.4335H32.8001V27.4204V26.31H31.4335H30.0669V27.4204Z" fill="#EF476F"/>
<path d="M35.5332 31.1787V32.2891H36.8998H38.2664V31.1787V30.0683H36.8998H35.5332V31.1787Z" fill="#EF476F"/>
<path d="M30.0669 33.9119V35.0222H31.4335H32.8001V33.9119V32.8015H31.4335H30.0669V33.9119Z" fill="#EF476F"/>
<path d="M73.7982 39.6346V41.0012H72.4315H71.0649V42.3678V43.7344H73.3711C75.6089 43.7344 75.7114 43.7173 76.1043 43.3073C76.5143 42.9144 76.5314 42.8119 76.5314 40.5741V38.268H75.1648H73.7982V39.6346Z" fill="#EF476F"/>
<path d="M25.9668 42.3678V43.7344H33.4831H40.9994V42.3678V41.0012H33.4831H25.9668V42.3678Z" fill="#EF476F"/>
</svg>
