<svg width="88" height="87" viewBox="0 0 88 87" fill="none" xmlns="http://www.w3.org/2000/svg">
<path d="M18.2482 0.130447C17.7585 0.239288 16.6882 0.638351 15.872 1.01928C13.1148 2.34346 10.9018 5.22762 10.3757 8.1662C10.2488 8.87363 10.1762 14.2429 10.1762 23.7117C10.1762 37.5157 10.1581 38.1869 9.84969 38.2776C8.92458 38.5678 8.30784 39.6925 4.71624 47.4561C2.72091 51.7914 0.870691 56.0361 0.5986 56.8886L0.108836 58.4305L0.0544182 72.7243L0 87H1.46929H2.92044V73.4862C2.92044 61.8225 2.95672 59.7728 3.21067 58.5574C3.51904 57.07 3.80927 56.3807 7.63668 48.0366L10.0855 42.7399L10.1762 53.5691C10.285 64.3258 10.285 64.4165 10.7022 65.5411C11.5004 67.7178 12.3892 68.516 13.405 67.9355C13.7497 67.7541 14.8924 65.9583 17.2868 61.8044C19.1371 58.5937 20.8059 55.7821 21.0054 55.5826C22.257 54.204 24.6514 54.5123 25.5947 56.1993C26.3747 57.5779 26.2296 57.9226 22.3659 64.6341C20.4431 67.9355 18.8831 70.8197 18.8831 71.0373C18.8831 71.255 19.6631 72.7243 20.6063 74.3206C23.291 78.7647 23.1277 78.2387 23.2003 82.9549L23.2728 87H24.724H26.1751L26.1026 82.7917C26.0119 77.8577 25.9393 77.5312 24.0166 74.3568L22.8919 72.5066L37.1676 72.4522L51.4433 72.3978L52.6405 71.9262C55.0712 70.9829 56.5586 69.8039 57.8647 67.7722C59.2614 65.6137 59.3884 65.0151 59.4791 59.7365L59.5516 55.0747H58.1005H56.6493L56.5768 59.5732L56.5223 64.0718L55.8512 65.4504C55.0349 67.1011 53.9828 68.1169 52.2959 68.915L51.0805 69.4955L36.9499 69.5499L22.8375 69.6043L23.1821 69.0057C23.3635 68.6792 24.4156 66.8653 25.5221 64.9606L27.4993 61.5323L27.6082 62.53C27.7533 63.8541 28.2068 64.743 29.15 65.5774C30.2746 66.575 30.8732 66.6839 34.8458 66.6839C39.036 66.6839 39.5076 66.575 40.7411 65.3234C42.5913 63.4913 42.5913 61.1695 40.7411 59.3374C39.5076 58.0858 39.036 57.977 34.8458 57.977C30.9095 57.977 30.3109 58.0858 29.2044 59.0291C28.5151 59.6277 28.4607 59.6458 28.6058 59.2286C28.6965 58.9928 28.7691 58.1765 28.7691 57.4328C28.7509 55.8365 28.3519 54.8026 27.2998 53.6235C25.7761 51.9366 23.1821 51.3561 20.9873 52.1724C19.2822 52.8254 18.5747 53.6961 15.7087 58.7025L13.1692 63.1467L13.1148 57.7049C13.0966 54.7119 13.0966 42.3771 13.1148 30.3144L13.1692 8.36574L13.7497 7.1504C14.5478 5.46343 15.5636 4.41135 17.2143 3.59508L18.5929 2.92392H34.8458H51.0987L52.4773 3.59508C53.7289 4.22995 54.9805 5.28204 55.4703 6.15273C55.6154 6.44296 55.7424 6.40668 56.8489 5.78994C57.5019 5.40901 58.0642 5.02808 58.0642 4.93739C58.0642 4.59274 56.5405 2.83322 55.6517 2.14392C54.5814 1.32765 53.9103 0.964867 52.4591 0.402542C51.4433 0.0216141 51.3163 0.0216141 35.2993 0.003479C25.6672 -0.0146637 18.7924 0.0397568 18.2482 0.130447ZM38.7457 61.3328C39.036 61.6049 39.1992 61.9858 39.1992 62.3304C39.1992 62.6751 39.036 63.056 38.7457 63.3281C38.3104 63.7816 38.2741 63.7816 34.8458 63.7816C31.4174 63.7816 31.3811 63.7816 30.9458 63.3281C30.6556 63.056 30.4923 62.6751 30.4923 62.3304C30.4923 61.9858 30.6556 61.6049 30.9458 61.3328C31.3811 60.8793 31.4174 60.8793 34.8458 60.8793C38.2741 60.8793 38.3104 60.8793 38.7457 61.3328Z" fill="#EF476F"/>
<path d="M23.2366 7.18632V8.6377H24.6879H26.1393V7.18632V5.73494H24.6879H23.2366V7.18632Z" fill="#EF476F"/>
<path d="M29.0411 7.18654V8.6377H34.8457H40.6503V7.18654V5.73539H34.8457H29.0411V7.18654Z" fill="#EF476F"/>
<path d="M60.2409 7.44059C55.1618 8.34756 50.9172 10.5062 47.4526 13.9889C44.0061 17.4354 41.648 22.1335 40.8861 27.0311C40.3782 30.3688 40.7773 34.7041 41.9019 37.9148C42.1922 38.7492 42.2284 39.0576 42.0652 39.3659C41.9564 39.5655 40.9587 41.2887 39.834 43.1933C36.8592 48.2361 36.8955 48.1091 37.5848 48.9798C38.0927 49.6147 38.3466 49.5965 43.4801 48.6352C45.8563 48.1817 47.9786 47.8189 48.16 47.8189C48.3414 47.8189 48.8312 48.091 49.2484 48.4175C57.266 54.9295 68.4943 55.3286 77.1286 49.4333C78.9607 48.1635 81.9174 45.1887 83.1146 43.3747C90.9327 31.5478 86.7244 15.8391 74.0449 9.54477C72.5031 8.78291 70.3808 8.0392 68.4943 7.62199C66.7529 7.24106 62.0004 7.13223 60.2409 7.44059ZM67.0431 10.361C72.2129 11.1954 76.9291 13.9889 79.9765 18.0521C84.8197 24.4916 85.509 32.8902 81.7542 39.9464C79.7951 43.6287 77.0742 46.3315 73.3919 48.3086C65.9004 52.2812 57.1934 51.2654 50.3912 45.6059C49.8107 45.1343 49.1577 44.7352 48.94 44.7352C48.7223 44.7352 46.9991 45.0254 45.1126 45.3701C43.2261 45.7329 41.6661 45.9868 41.648 45.9687C41.6117 45.9324 42.4461 44.4812 43.4801 42.7399C45.6205 39.1664 45.5661 39.4385 44.6773 36.9352C41.8112 28.7907 44.641 19.467 51.5884 14.2429C56.0325 10.9052 61.6557 9.49035 67.0431 10.361Z" fill="#EF476F"/>
<path d="M62.5084 14.6056C59.8782 15.2949 58.2638 17.3447 58.1005 20.1926L58.0098 21.6981H55.5792C53.2392 21.6981 53.1303 21.7163 52.7131 22.1516L52.2596 22.587V31.8743C52.2596 38.6222 52.3141 41.3613 52.4773 41.9054C52.7675 42.9031 54.2731 44.4087 55.2708 44.6989C56.3229 45.0073 71.4148 45.0073 72.4669 44.6989C73.4646 44.4087 74.9702 42.9031 75.2604 41.9054C75.4236 41.3613 75.4781 38.6222 75.4781 31.8743V22.587L75.0246 22.1516C74.6074 21.7163 74.4985 21.6981 72.1586 21.6981H69.7279L69.6372 20.1744C69.4739 17.7075 68.3493 15.948 66.2451 14.9684C65.3744 14.5694 63.3972 14.3698 62.5084 14.6056ZM65.4651 17.8345C66.3902 18.5238 66.6623 19.0861 66.7349 20.4284L66.8074 21.6981H63.887H60.9666V20.7186C60.9666 19.1405 61.5107 18.1247 62.6898 17.5986C63.4154 17.254 64.8484 17.381 65.4651 17.8345ZM58.0642 26.0516V27.5028H59.5154H60.9666V26.0516V24.6005H63.8689H66.7712V26.0516V27.5028H68.2223H69.6735V26.0516V24.6005H71.1246H72.5758V30.4051V36.2097H63.8689H55.1619V30.4051V24.6005H56.6131H58.0642V26.0516ZM72.5758 40.1096C72.5758 40.944 72.5032 41.198 72.1223 41.5608L71.6869 42.0143H63.8689H56.0508L55.6154 41.5608C55.2345 41.198 55.1619 40.944 55.1619 40.1096V39.112H63.8689H72.5758V40.1096Z" fill="#EF476F"/>
<path d="M28.2793 20.3739L27.2453 21.3897L26.157 20.8999C22.5472 19.2855 18.23 20.9362 16.5612 24.5641C16.144 25.4711 16.0896 25.852 16.0896 27.5027C16.0715 29.2985 16.1077 29.4799 16.6519 30.6045C17.3775 32.0557 18.8286 33.4887 20.2798 34.178C21.2049 34.6133 21.5495 34.6677 23.1458 34.6677C24.597 34.6496 25.1593 34.577 25.9937 34.2324C27.5174 33.6338 28.896 32.3096 29.7123 30.6226C30.3653 29.3166 30.4016 29.1533 30.4016 27.5208C30.4016 25.9971 30.329 25.6343 29.8755 24.6366L29.3495 23.4939L30.3653 22.4599C30.9458 21.8795 31.3992 21.3353 31.3992 21.2264C31.3992 20.9906 29.7304 19.3399 29.4946 19.3399C29.3858 19.3399 28.8416 19.8116 28.2793 20.3739ZM24.5063 23.3487L25.0867 23.5664L22.9463 25.7069L20.7877 27.8655L21.8398 28.8994L22.8737 29.9515L25.0323 27.7929L27.1728 25.6524L27.3904 26.2329C28.2793 28.8087 26.03 31.8561 23.2365 31.8561C22.0937 31.8561 21.1686 31.4389 20.2435 30.4957C18.3933 28.6636 18.3933 26.3417 20.2435 24.5097C21.477 23.258 23.0188 22.8408 24.5063 23.3487Z" fill="#EF476F"/>
<path d="M33.3947 24.6004V26.0518H36.2974H39.2002V24.6004V23.149H36.2974H33.3947V24.6004Z" fill="#EF476F"/>
<path d="M33.3947 30.4048V31.8562H36.2974H39.2002V30.4048V28.9534H36.2974H33.3947V30.4048Z" fill="#EF476F"/>
</svg>
