<svg width="88" height="82" viewBox="0 0 88 82" fill="none" xmlns="http://www.w3.org/2000/svg">
<path d="M39.8467 0.7584C37.3531 1.4291 35.1002 3.45841 34.1027 5.95206C33.7416 6.84633 33.7072 7.27627 33.6212 11.1457L33.5352 15.3591L18.5734 15.4451C4.71213 15.5311 3.55989 15.5483 2.95798 15.8406C2.01211 16.2878 0.98026 17.2852 0.464334 18.2655L0 19.1426V34.5344V49.9262L0.395544 50.7173C0.928668 51.8179 1.85734 52.7294 2.99237 53.2625L3.95544 53.7096L18.7969 53.7612L33.6212 53.8128V64.3549C33.6212 74.4499 33.6384 74.9658 33.9652 76.0321C34.8078 78.7493 37.1639 81.0193 39.8983 81.7416C40.7926 81.9652 43.4582 81.9996 60.7933 81.9996C82.5138 81.9996 81.4476 82.0512 83.4597 80.9678C84.7151 80.2971 86.3833 78.6289 87.0024 77.3907C87.9483 75.4989 87.9655 75.4473 87.9655 61.4829C87.9655 47.5185 87.9999 47.9141 87.0196 47.4669C86.7788 47.3465 86.4177 47.2606 86.2285 47.2606C85.747 47.2606 84.9387 47.7077 84.7667 48.0688C84.6807 48.2408 84.5775 54.3288 84.526 61.6205L84.44 74.8626L83.9756 75.7397C83.7177 76.2212 83.1502 76.9435 82.7202 77.3219C81.2068 78.6461 82.6514 78.5773 60.4322 78.5257L40.5862 78.4741L39.8983 78.113C38.9868 77.6142 38.0066 76.6512 37.5251 75.7569L37.1467 75.0346L37.0951 64.4409L37.0435 53.8472L38.6601 53.7612C41.2225 53.6237 42.8219 52.6778 43.8022 50.7345C44.1805 49.9606 44.1977 49.7198 44.2837 44.9733L44.3697 40.0204L46.1582 38.4382C48.4799 36.3917 48.6347 36.1681 48.7207 34.8267C48.8238 33.2446 48.4627 32.677 46.227 30.7509L44.3697 29.1515L44.2837 24.233C44.1977 19.6929 44.1633 19.2458 43.8366 18.5235C43.2862 17.354 42.4264 16.477 41.2741 15.9266C40.3626 15.5139 40.0359 15.4451 38.6429 15.4451H37.0435L37.0951 11.4381C37.1467 6.94952 37.2155 6.69155 38.5569 5.38454C39.8295 4.14632 40.2423 4.02593 43.441 3.95715L46.313 3.88835L46.3818 5.59091C46.4678 7.7406 46.9665 8.92723 48.2735 9.95908C49.8213 11.1801 49.7009 11.1629 61.1545 11.1113L71.3698 11.0597L72.2297 10.5954C74.173 9.56355 75.0329 8.08456 75.1877 5.53931L75.2909 3.92274H77.8189C80.7769 3.92274 81.5336 4.11192 82.7202 5.16097C83.1502 5.53931 83.7177 6.26161 83.9756 6.74315L84.44 7.62022L84.526 20.8623C84.5775 28.1369 84.6807 34.242 84.7667 34.414C84.9387 34.7751 85.747 35.2223 86.2285 35.2223C86.8132 35.2223 87.4667 34.8267 87.7247 34.3452C88.103 33.6057 88.0858 8.63487 87.7075 7.03551C87.0024 4.06033 84.5088 1.51509 81.5164 0.724007C80.2094 0.362854 41.1537 0.397247 39.8467 0.7584ZM71.7998 4.989C71.7998 6.24442 71.4214 7.15588 70.7679 7.48264C70.4412 7.65462 68.0507 7.70621 60.6558 7.70621H50.9563L50.3716 7.12149C49.8041 6.55397 49.7869 6.48518 49.7869 5.22976V3.92274H60.7933H71.7998V4.989ZM40.0015 19.0566C40.7754 19.4865 40.8442 19.9337 40.8442 25.2305C40.8442 28.3949 40.913 30.3554 41.0334 30.6133C41.1365 30.8369 42.134 31.7828 43.2518 32.7286C44.3697 33.6745 45.2983 34.5 45.2983 34.5516C45.3155 34.6204 44.4385 35.4115 43.3722 36.3057C42.2888 37.2172 41.3085 38.0943 41.1709 38.2491C40.9818 38.4898 40.913 39.6421 40.8442 43.9242L40.7582 49.3243L40.2767 49.7886L39.8123 50.2701H22.0817H4.35098L3.85225 49.7026L3.35352 49.1523V34.6892C3.35352 19.263 3.33632 19.5553 4.16181 19.0738C4.59175 18.833 39.5372 18.8158 40.0015 19.0566Z" fill="#EF476F"/>
<path d="M8.63313 24.8349C8.37516 25.0929 8.16879 25.454 8.1516 25.6604C8.06561 27.5521 8.61593 29.5986 9.61339 31.1464C10.3529 32.3158 11.9179 33.7432 13.1389 34.3451C14.807 35.1878 15.7701 35.3942 18.1778 35.3942H20.3791V39.5216V43.649L20.8778 44.1993C21.2905 44.6637 21.4969 44.7668 22.0988 44.7668C22.7007 44.7668 22.9071 44.6637 23.3198 44.1993L23.8186 43.649V39.5216V35.3942H26.0714C28.0148 35.3942 28.4791 35.3426 29.6141 34.9642C33.3632 33.6916 36.0288 30.1489 36.0288 26.4343C36.0288 25.3508 35.9944 25.2476 35.4957 24.8349L34.9626 24.3878H31.6778C29.339 24.3878 28.1008 24.4565 27.43 24.6457C25.8823 25.0585 24.3517 25.9355 23.1651 27.105L22.0644 28.1884L21.2561 27.3457C20.2243 26.2795 18.8485 25.3508 17.5415 24.8693C16.6128 24.5253 16.1313 24.4737 12.8121 24.4221L9.09746 24.3706L8.63313 24.8349ZM16.4924 28.1884C17.937 28.7215 19.5708 30.3209 19.9491 31.5591C20.0523 31.9547 20.0523 31.9547 18.1606 31.9547C16.6816 31.9547 16.0625 31.8859 15.323 31.6107C13.8784 31.0604 12.5026 29.719 11.9695 28.2916L11.7803 27.8273H13.672C15.151 27.8273 15.7529 27.8961 16.4924 28.1884ZM32.2454 28.2744C31.7122 29.6846 30.2848 31.0776 28.8403 31.6107C27.7224 32.0407 24.1625 32.1266 24.1625 31.7311C24.1625 31.3184 25.1256 29.977 25.9511 29.2547C27.2065 28.154 28.1695 27.8445 30.474 27.8445L32.4173 27.8273L32.2454 28.2744Z" fill="#EF476F"/>
<path d="M65.5228 19.7445C63.4418 19.7961 61.6017 19.8993 61.4469 19.968C61.2922 20.054 61.0342 20.3808 60.8794 20.7247C60.6215 21.2579 60.6215 21.3954 60.8278 21.9458C60.9654 22.3069 61.2922 22.7025 61.6017 22.8916C62.1348 23.2012 62.5476 23.2012 70.5272 23.0808L78.8852 22.9604L79.384 22.5477C79.7795 22.2037 79.8827 21.9802 79.8827 21.4298C79.8827 20.57 79.6591 20.1572 79.0228 19.8305C78.4897 19.5553 74.1559 19.5209 65.5228 19.7445Z" fill="#EF476F"/>
<path d="M58.334 26.6063C55.7888 26.7095 55.7716 26.7095 55.3589 27.191C54.7742 27.8789 54.8086 28.7044 55.4449 29.4095L55.9436 29.9771L67.2768 29.9083C73.5023 29.8739 78.7647 29.7879 78.9539 29.7019C79.9858 29.3235 80.2093 27.793 79.3838 26.9503L78.8851 26.4516L69.8736 26.4859C64.9207 26.5031 59.7271 26.5547 58.334 26.6063Z" fill="#EF476F"/>
<path d="M85.403 39.7624C83.9068 40.5879 84.5431 42.9612 86.2457 42.9612C87.1228 42.9612 87.9654 42.1185 87.9654 41.2586C87.9654 39.9688 86.538 39.1261 85.403 39.7624Z" fill="#EF476F"/>
<path d="M57.6118 49.5993C53.7767 50.3216 50.5608 51.9038 47.9468 54.363C46.8977 55.3433 46.6742 56.0312 47.1041 56.8567C47.448 57.5102 47.8608 57.751 48.6347 57.751C49.1162 57.751 49.4945 57.5274 50.664 56.5471C52.3665 55.1197 54.4646 53.9847 56.5971 53.3484C57.9729 52.9184 58.3857 52.8841 60.7073 52.8841C65.1615 52.8841 67.3972 53.7611 71.5934 57.149C72.5221 57.9057 73.2616 57.9401 74.0182 57.3038C74.4654 56.9255 74.5514 56.7363 74.5514 56.0656C74.5514 55.3261 74.4826 55.2057 73.5883 54.3458C72.2985 53.1248 69.8392 51.5426 68.2227 50.8719C64.9895 49.5133 60.7245 48.9974 57.6118 49.5993Z" fill="#EF476F"/>
<path d="M58.592 56.3925C55.8576 56.8569 52.0742 59.1957 51.799 60.6059C51.6614 61.3798 52.0914 62.1881 52.7965 62.4977C53.5703 62.8072 54.0519 62.6868 54.929 61.9301C58.4373 58.9378 63.1494 58.9206 66.5201 61.8613C67.2424 62.5148 67.8099 62.7384 68.4118 62.618C69.0997 62.4805 69.736 61.6378 69.736 60.8811C69.736 60.3308 69.5985 60.1244 68.687 59.2645C66.2449 56.9256 62.2207 55.7906 58.592 56.3925Z" fill="#EF476F"/>
<path d="M59.5034 63.2372C58.1448 63.5983 56.855 64.6302 56.1843 65.9028C55.7888 66.6595 55.72 66.9862 55.72 68.2417C55.72 69.4971 55.7888 69.8238 56.1843 70.5805C56.7002 71.5608 57.5085 72.3519 58.6092 72.9194C59.1767 73.229 59.6066 73.3149 60.7073 73.3149C62.341 73.3149 63.3213 72.9366 64.3531 71.9047C65.4022 70.8557 65.8493 69.7722 65.8493 68.2417C65.8493 67.227 65.7461 66.7627 65.4366 66.092C64.9035 65.0085 63.906 64.0111 62.8913 63.5639C62.0315 63.1856 60.3289 63.0136 59.5034 63.2372ZM61.8595 67.0206C62.3238 67.4334 62.427 67.6398 62.427 68.2417C62.427 68.8436 62.3238 69.0499 61.8595 69.4627C61.2404 70.013 60.6729 70.0818 59.9334 69.7035C59.3315 69.3939 59.0735 68.964 59.0735 68.2417C59.0735 67.5366 59.3143 67.1066 59.899 66.7971C60.6213 66.4015 61.2404 66.4703 61.8595 67.0206Z" fill="#EF476F"/>
</svg>
